<svg xmlns="http://www.w3.org/2000/svg" viewBox="0 0 64 64">
  <defs>
    <linearGradient id="g" x1="0%" y1="0%" x2="100%" y2="100%">
      <stop offset="0%" stop-color="#34d399"/>
      <stop offset="100%" stop-color="#2dd4bf"/>
    </linearGradient>
  </defs>
  <circle cx="32" cy="32" r="30" fill="#0f1117" stroke="url(#g)" stroke-width="2"/>
  <!-- Heart shape -->
  <path d="M32 48 C24 40 14 33 14 24 C14 18 19 14 24 14 C28 14 31 17 32 19 C33 17 36 14 40 14 C45 14 50 18 50 24 C50 33 40 40 32 48Z" fill="url(#g)" opacity="0.9"/>
  <!-- Pulse line -->
  <path d="M12 32 L22 32 L26 22 L30 42 L34 28 L38 36 L42 32 L52 32" fill="none" stroke="#0f1117" stroke-width="2.5" stroke-linecap="round" stroke-linejoin="round"/>
</svg>
